<?xml version="1.0" encoding="UTF-8" standalone="no"?><!-- Generator: Gravit.io --><svg xmlns="http://www.w3.org/2000/svg" xmlns:xlink="http://www.w3.org/1999/xlink" style="isolation:isolate" viewBox="0 0 44 44" width="44pt" height="44pt"><defs><clipPath id="_clipPath_5qVAYgi8EoPCDshtZS8N6s0ASxQxUqAv"><rect width="44" height="44"/></clipPath></defs><g clip-path="url(#_clipPath_5qVAYgi8EoPCDshtZS8N6s0ASxQxUqAv)"><clipPath id="_clipPath_xfHcWqaTVlz267qPatn4mnnNvZkLhY5V"><rect x="0" y="0" width="44" height="44" transform="matrix(1,0,0,1,0,0)" fill="rgb(255,255,255)"/></clipPath><g clip-path="url(#_clipPath_xfHcWqaTVlz267qPatn4mnnNvZkLhY5V)"><g><path d=" M 21.998 0.817 C 10.005 0.817 0.281 10.541 0.281 22.537 C 0.281 32.133 6.503 40.273 15.134 43.146 C 16.221 43.345 16.617 42.674 16.617 42.098 C 16.617 41.583 16.598 40.217 16.587 38.405 C 10.546 39.717 9.271 35.493 9.271 35.493 C 8.283 32.985 6.859 32.317 6.859 32.317 C 4.887 30.969 7.009 30.995 7.009 30.995 C 9.189 31.15 10.335 33.234 10.335 33.234 C 12.273 36.553 15.419 35.594 16.657 35.039 C 16.854 33.635 17.414 32.678 18.035 32.135 C 13.213 31.587 8.142 29.723 8.142 21.401 C 8.142 19.03 8.989 17.091 10.378 15.573 C 10.154 15.023 9.409 12.815 10.59 9.825 C 10.59 9.825 12.414 9.241 16.563 12.051 C 18.295 11.57 20.154 11.329 22.001 11.321 C 23.845 11.329 25.703 11.57 27.438 12.051 C 31.585 9.241 33.405 9.825 33.405 9.825 C 34.59 12.815 33.845 15.023 33.621 15.573 C 35.013 17.091 35.854 19.03 35.854 21.401 C 35.854 29.745 30.775 31.581 25.937 32.118 C 26.717 32.789 27.411 34.114 27.411 36.141 C 27.411 39.043 27.385 41.386 27.385 42.098 C 27.385 42.679 27.775 43.355 28.878 43.143 C 37.502 40.265 43.719 32.13 43.719 22.537 C 43.719 10.541 33.994 0.817 21.998 0.817 Z " fill-rule="evenodd" fill="rgb(255,255,255)"/></g></g></g></svg>