<?xml version="1.0" encoding="UTF-8" standalone="no"?><!-- Generator: Gravit.io --><svg xmlns="http://www.w3.org/2000/svg" xmlns:xlink="http://www.w3.org/1999/xlink" style="isolation:isolate" viewBox="0 0 586 559" width="586pt" height="559pt"><defs><clipPath id="_clipPath_d7alMSmTAvSYkw1WEhnE1SeL383istEL"><rect width="586" height="559"/></clipPath></defs><g clip-path="url(#_clipPath_d7alMSmTAvSYkw1WEhnE1SeL383istEL)"><g><path d=" M 584.928 318.255 L 552.103 217.365 L 487.146 17.252 C 485.612 12.674 481.324 9.588 476.496 9.588 C 471.668 9.588 467.38 12.674 465.846 17.252 L 400.889 217.244 L 185.067 217.244 L 120.11 17.252 C 118.586 12.669 114.299 9.577 109.469 9.577 C 104.639 9.577 100.352 12.669 98.828 17.252 L 33.975 217.244 L 1.149 318.255 C -1.842 327.455 1.422 337.535 9.239 343.235 L 293.004 549.423 L 576.717 343.235 C 584.569 337.561 587.883 327.481 584.928 318.255" fill="rgb(252,109,38)"/></g><g><path d=" M 293.004 549.267 L 293.004 549.267 L 400.907 217.227 L 185.153 217.227 L 293.004 549.267 Z " fill="rgb(226,67,41)"/></g><g><path d=" M 293.004 549.267 L 185.067 217.227 L 34.045 217.227 L 293.004 549.267 Z " fill="rgb(252,109,38)"/></g><g><path d=" M 33.923 217.331 L 33.923 217.331 L 1.097 318.22 C -1.894 327.42 1.37 337.5 9.187 343.2 L 293.004 549.423 L 33.923 217.331 Z " fill="rgb(252,163,38)"/></g><g><path d=" M 33.975 217.331 L 185.188 217.331 L 120.11 17.357 C 118.576 12.778 114.288 9.692 109.46 9.692 C 104.632 9.692 100.344 12.778 98.81 17.357 L 33.975 217.331 Z " fill="rgb(226,67,41)"/></g><g><path d=" M 293.004 549.267 L 400.907 217.227 L 552.172 217.227 L 293.004 549.267 Z " fill="rgb(252,109,38)"/></g><g><path d=" M 552.068 217.331 L 552.068 217.331 L 584.893 318.22 C 587.902 327.42 584.635 337.51 576.804 343.2 L 293.004 549.267 L 551.998 217.331 L 552.068 217.331 Z " fill="rgb(252,163,38)"/></g><g><path d=" M 552.137 217.331 L 400.942 217.331 L 465.898 17.357 C 467.422 12.773 471.71 9.681 476.539 9.681 C 481.369 9.681 485.656 12.773 487.18 17.357 L 552.137 217.331 Z " fill="rgb(226,67,41)"/></g></g></svg>