<?xml version="1.0" encoding="UTF-8" standalone="no"?><!-- Generator: Gravit.io --><svg xmlns="http://www.w3.org/2000/svg" xmlns:xlink="http://www.w3.org/1999/xlink" style="isolation:isolate" viewBox="0 0 36 36" width="36pt" height="36pt"><defs><clipPath id="_clipPath_IbGxPbr1M2MPbaf8fVJz3Xv1xHMm4GN3"><rect width="36" height="36"/></clipPath></defs><g clip-path="url(#_clipPath_IbGxPbr1M2MPbaf8fVJz3Xv1xHMm4GN3)"><circle vector-effect="non-scaling-stroke" cx="18" cy="18" r="18" fill="rgb(68,68,68)"/><path d=" M 25.716 1.756 C 24.694 2.324 23.844 3.284 22.688 2.937 C 20.813 2.375 18.313 1.125 16.688 2.687 C 15.063 4.249 14.688 5.687 16.688 5.625 C 18.688 5.563 20.063 3.187 21.063 4.187 C 22.063 5.187 21.812 6 19.438 6.312 C 17.064 6.624 14.5 7 13.125 7 C 11.75 7 11.437 7.812 12.375 8.688 C 13.313 9.564 11.812 9.625 10.25 10.5 C 8.688 11.375 10.625 11.75 11.938 12.5 C 13.251 13.25 14.25 12.312 14.813 11.062 C 15.376 9.812 17.794 8.312 18.803 8.5 C 19.813 8.688 19.813 9.188 19.625 10.062 C 19.437 10.936 20.375 10.687 20.437 9.687 C 20.499 8.687 21.625 7.937 22.499 7.875 C 23.373 7.813 24.124 9.063 23.124 9.687 C 22.124 10.311 21.124 10.812 22.374 11.125 C 23.624 11.438 24.499 13.063 23.062 13.75 C 21.625 14.437 19.125 14.875 18 14.312 C 16.875 13.749 14.312 12.937 13.625 13.374 C 12.938 13.811 12.563 14.264 11.75 14.569 C 10.938 14.874 7.625 16.374 7.562 18.312 C 7.499 20.25 7.438 22.438 8.75 22.5 C 10.062 22.562 13.25 21.688 14.25 20.875 C 15.25 20.062 16.625 20.25 17.062 21.187 C 17.499 22.124 17.187 22.687 16.75 24.187 C 16.313 25.687 17.036 26.437 17.737 27.749 C 18.438 29.061 19 29.811 19 30.749 C 19 31.687 20 32.624 21.5 31.061 C 23 29.498 24.375 26.436 25 25.311 C 25.625 24.186 26.125 21.686 26.875 21.186 C 27.625 20.686 28.813 19.498 27.937 19.686 C 27.061 19.874 25.312 19.624 24.875 18.374 C 24.438 17.124 22.563 14.749 23.437 14.499 C 24.311 14.249 25.312 15.889 25.687 16.663 C 26.062 17.437 26.562 18.374 27.312 18.624 C 28.062 18.874 29.687 16.951 30.187 16.663 C 30.687 16.374 30.312 15.187 29.312 15.312 C 28.312 15.437 27 15.312 27 14.688 C 27 14.064 28.25 13.25 29.25 13.438 C 30.25 13.626 31 13.938 31.625 14.688 C 32.25 15.438 33.5 16.813 34 17.688 C 34.5 18.563 34.875 18.688 35.125 17.126 C 35.291 16.088 35.512 15.517 35.715 14.904 C 34.702 9.075 30.895 4.221 25.716 1.756 Z " fill="rgb(51,51,51)"/><rect x="0" y="0" width="36" height="36" transform="matrix(1,0,0,1,0,0)" fill="none"/></g></svg>