<?xml version="1.0" encoding="UTF-8" standalone="no"?><!-- Generator: Gravit.io --><svg xmlns="http://www.w3.org/2000/svg" xmlns:xlink="http://www.w3.org/1999/xlink" style="isolation:isolate" viewBox="0 0 128 128" width="128pt" height="128pt"><defs><clipPath id="_clipPath_L0I3swSiPSYOJbzitJPKmOe0vcI0SFgi"><rect width="128" height="128"/></clipPath></defs><g clip-path="url(#_clipPath_L0I3swSiPSYOJbzitJPKmOe0vcI0SFgi)"><path d=" M 27.758 20.421 C 20.406 30.986 21.321 44.733 26.938 55.961 L 27.349 56.759 L 27.612 57.265 L 27.776 57.556 L 28.069 58.08 C 28.243 58.387 28.422 58.692 28.605 58.999 L 28.911 59.503 C 29.114 59.829 29.321 60.153 29.533 60.476 L 29.798 60.885 C 30.091 61.322 30.39 61.757 30.699 62.186 L 30.725 62.219 L 30.877 62.424 C 31.144 62.792 31.419 63.156 31.698 63.517 L 32.007 63.91 C 32.256 64.223 32.509 64.533 32.766 64.844 L 33.056 65.19 C 33.401 65.596 33.754 66.002 34.113 66.398 L 34.134 66.42 L 34.175 66.465 C 34.526 66.848 34.885 67.223 35.25 67.598 L 35.594 67.945 C 35.876 68.229 36.163 68.508 36.452 68.786 L 36.803 69.12 C 37.19 69.484 37.58 69.842 37.979 70.19 L 37.997 70.206 L 38.202 70.38 C 38.553 70.685 38.91 70.985 39.27 71.282 L 39.712 71.635 C 40.006 71.87 40.303 72.103 40.602 72.331 L 41.079 72.692 C 41.409 72.935 41.742 73.174 42.078 73.409 L 42.441 73.667 L 42.542 73.739 C 42.86 73.959 43.187 74.17 43.512 74.381 L 43.932 74.661 C 44.432 74.976 44.939 75.289 45.451 75.591 L 45.871 75.828 C 46.248 76.045 46.627 76.259 47.011 76.467 L 47.642 76.793 L 48.458 77.217 L 48.646 77.308 L 48.98 77.469 C 49.407 77.673 49.838 77.874 50.273 78.068 L 50.546 78.19 C 51.044 78.408 51.547 78.617 52.054 78.818 L 52.422 78.962 C 52.891 79.144 53.367 79.321 53.845 79.489 L 54.024 79.551 C 54.548 79.735 55.078 79.904 55.611 80.071 L 55.994 80.185 C 56.536 80.349 57.073 80.543 57.632 80.647 C 93.185 87.13 103.512 59.283 103.512 59.283 C 94.838 70.583 79.443 73.563 64.856 70.245 C 64.303 70.12 63.767 69.947 63.228 69.789 L 62.822 69.665 C 62.296 69.504 61.773 69.335 61.254 69.155 L 61.039 69.078 C 60.574 68.914 60.115 68.742 59.657 68.565 L 59.269 68.413 C 58.768 68.215 58.269 68.008 57.777 67.793 L 57.479 67.66 C 57.056 67.469 56.637 67.276 56.22 67.075 L 55.856 66.9 C 55.529 66.741 55.206 66.572 54.882 66.405 L 54.233 66.064 C 53.838 65.854 53.451 65.634 53.066 65.41 L 52.672 65.191 C 52.159 64.888 51.653 64.576 51.152 64.259 L 50.742 63.986 C 50.379 63.752 50.017 63.513 49.661 63.267 L 49.312 63.022 C 48.968 62.78 48.627 62.533 48.29 62.284 L 47.837 61.941 C 47.527 61.704 47.219 61.465 46.915 61.22 L 46.504 60.89 C 46.116 60.572 45.733 60.25 45.355 59.921 L 45.229 59.816 C 44.82 59.457 44.418 59.088 44.021 58.718 L 43.681 58.39 C 43.387 58.111 43.097 57.829 42.813 57.539 L 42.473 57.199 C 42.111 56.829 41.756 56.454 41.408 56.073 L 41.355 56.016 C 40.987 55.614 40.627 55.203 40.275 54.787 L 39.992 54.451 C 39.729 54.135 39.469 53.813 39.215 53.49 L 38.93 53.135 C 38.623 52.738 38.325 52.342 38.032 51.94 C 29.934 40.893 27.024 25.657 33.497 13.145 M 50.578 11.519 C 45.262 19.169 45.55 29.412 49.698 37.502 C 50.393 38.858 51.175 40.175 52.049 41.427 C 52.845 42.57 53.729 43.928 54.786 44.845 C 55.169 45.267 55.57 45.679 55.979 46.083 L 56.293 46.394 C 56.69 46.779 57.094 47.158 57.511 47.526 L 57.561 47.569 L 57.573 47.581 C 58.035 47.986 58.512 48.375 58.996 48.759 L 59.319 49.011 C 59.805 49.383 60.3 49.749 60.808 50.098 L 60.851 50.131 L 61.531 50.578 L 61.853 50.791 C 62.216 51.024 62.583 51.25 62.957 51.467 L 63.113 51.559 C 63.435 51.744 63.761 51.926 64.088 52.104 L 64.435 52.284 L 65.117 52.638 L 65.22 52.685 C 65.689 52.915 66.161 53.138 66.644 53.348 L 66.958 53.478 C 67.344 53.641 67.733 53.801 68.125 53.951 L 68.625 54.135 C 68.981 54.267 69.337 54.388 69.697 54.508 L 70.181 54.663 C 70.692 54.821 71.198 55.022 71.73 55.111 C 99.18 59.658 105.517 38.523 105.517 38.523 C 99.805 46.751 88.742 50.676 76.937 47.612 C 76.413 47.474 75.895 47.324 75.382 47.163 L 74.915 47.012 C 74.55 46.895 74.187 46.769 73.828 46.638 L 73.337 46.455 C 72.943 46.303 72.553 46.146 72.166 45.982 L 71.851 45.849 C 71.366 45.638 70.889 45.415 70.419 45.183 L 69.701 44.818 L 69.287 44.605 C 68.981 44.439 68.677 44.267 68.378 44.091 L 68.161 43.968 C 67.789 43.751 67.423 43.528 67.061 43.296 L 66.729 43.075 L 66.017 42.603 C 65.511 42.254 65.018 41.889 64.533 41.518 L 64.199 41.254 C 59.032 37.175 54.936 31.599 52.989 25.277 C 50.948 18.72 51.388 11.36 54.924 5.386 M 69.771 4.868 C 66.637 9.48 66.329 15.209 68.504 20.303 C 70.797 25.71 75.496 29.951 80.981 31.963 L 81.663 32.198 L 81.963 32.294 C 82.286 32.396 82.607 32.514 82.941 32.576 C 98.098 35.505 102.209 24.799 103.303 23.222 C 99.702 28.407 93.65 29.652 86.224 27.849 C 85.638 27.707 84.993 27.495 84.428 27.294 C 83.703 27.035 82.989 26.741 82.294 26.408 C 80.976 25.774 79.719 25.006 78.553 24.126 C 71.908 19.084 67.781 9.467 72.117 1.634" fill="rgb(8,104,172)"/><path d=" M 66.359 96.295 L 62.133 96.295 C 61.899 96.295 61.666 96.483 61.616 96.712 L 60.116 103.652 L 58.616 110.592 C 58.567 110.821 58.334 111.009 58.1 111.009 L 55.109 111.009 C 52.15 111.009 52.492 108.962 53.098 106.158 L 53.116 106.073 L 53.182 105.719 L 53.194 105.653 L 53.329 104.933 L 53.474 104.162 L 53.628 103.377 L 54.31 100.045 L 54.993 96.713 C 55.04 96.483 54.886 96.294 54.652 96.294 L 50.315 96.294 C 50.081 96.294 49.849 96.482 49.801 96.712 L 48.868 101.136 L 47.936 105.561 L 47.934 105.567 L 47.848 105.979 C 46.774 110.882 47.058 115.559 52.896 115.706 L 53.066 115.709 L 62.229 115.709 C 62.463 115.709 62.696 115.521 62.745 115.292 L 64.721 106.003 L 66.697 96.713 C 66.746 96.483 66.594 96.296 66.359 96.295 L 66.359 96.295 Z  M 21.103 96.246 L 16.463 96.246 C 16.228 96.246 15.994 96.434 15.942 96.662 L 15.502 98.604 L 15.062 100.546 C 15.011 100.775 15.16 100.962 15.395 100.962 L 20.071 100.962 C 20.306 100.962 20.539 100.774 20.589 100.545 L 21.014 98.604 L 21.439 96.663 C 21.488 96.434 21.338 96.246 21.103 96.246 L 21.103 96.246 Z  M 19.757 102.29 L 15.08 102.29 C 14.846 102.29 14.611 102.478 14.559 102.706 L 13.902 105.616 L 13.246 108.525 L 13.063 109.359 L 12.432 112.329 L 11.802 115.3 C 11.753 115.529 11.652 115.899 11.577 116.121 C 11.577 116.121 10.703 118.721 9.234 118.691 L 9.05 118.687 L 7.779 118.664 L 7.778 118.664 C 7.544 118.661 7.309 118.844 7.254 119.071 L 6.769 121.11 L 6.285 123.148 C 6.23 123.376 6.378 123.564 6.611 123.568 C 7.444 123.578 9.31 123.599 10.439 123.599 C 14.108 123.599 16.043 121.566 17.282 115.716 L 18.733 109.002 L 20.094 102.705 C 20.143 102.478 19.991 102.29 19.757 102.29 Z  M 105.874 100.716 L 105.68 99.915 L 105.489 99.095 L 105.392 98.681 C 105.012 97.204 103.897 96.353 101.475 96.353 L 97.705 96.349 L 94.233 96.344 L 90.326 96.344 C 90.092 96.344 89.86 96.532 89.811 96.761 L 89.638 97.577 L 89.434 98.541 L 89.377 98.812 L 87.618 107.052 L 85.948 114.874 C 85.898 115.104 85.882 115.386 85.91 115.5 C 85.938 115.615 86.389 115.709 86.623 115.709 L 90.147 115.709 C 90.382 115.709 90.679 115.667 90.807 115.615 C 90.935 115.563 91.124 115.102 91.171 114.873 L 91.797 111.774 L 92.424 108.674 L 92.425 108.669 L 92.509 108.256 L 93.269 104.696 L 93.94 101.552 C 93.99 101.323 94.221 101.136 94.455 101.135 L 105.544 101.13 C 105.779 101.132 105.927 100.945 105.874 100.716 L 105.874 100.716 Z  M 120.149 93.476 L 119.295 93.479 L 115.746 93.479 C 115.511 93.479 115.21 93.638 115.079 93.832 L 107.23 105.33 C 107.098 105.524 106.947 105.496 106.895 105.268 L 106.317 102.735 C 106.265 102.506 106.03 102.319 105.795 102.319 L 100.75 102.319 C 100.515 102.319 100.376 102.503 100.44 102.728 L 102.701 110.649 C 102.765 110.875 102.77 111.245 102.712 111.473 L 101.727 115.306 C 101.668 115.534 101.812 115.719 102.047 115.719 L 107.034 115.719 C 107.268 115.719 107.508 115.533 107.566 115.306 L 108.552 111.473 C 108.61 111.244 108.773 110.906 108.915 110.718 L 121.657 93.807 C 121.799 93.619 121.722 93.466 121.488 93.468 L 120.149 93.476 L 120.149 93.476 Z  M 80.063 103.395 L 80.063 103.391 C 80.034 103.645 79.799 103.832 79.564 103.832 L 73.167 103.832 C 72.945 103.832 72.833 103.682 72.866 103.496 L 72.872 103.481 L 72.868 103.483 L 72.871 103.462 L 72.9 103.353 C 73.511 101.729 74.755 100.663 77.094 100.663 C 79.728 100.662 80.242 101.948 80.063 103.395 L 80.063 103.395 Z  M 78.186 96.011 C 69.975 96.011 68.029 100.995 66.937 106.026 C 65.846 111.154 65.939 115.947 74.437 115.947 L 75.467 115.947 L 75.723 115.946 L 75.783 115.946 L 76.803 115.943 L 76.821 115.943 C 79.065 115.934 81.316 115.917 82.227 115.91 C 82.46 115.906 82.688 115.719 82.736 115.49 L 83.08 113.809 L 83.147 113.482 L 83.557 111.476 C 83.604 111.247 83.451 111.058 83.216 111.058 L 75.577 111.058 C 72.538 111.058 71.636 110.251 71.969 107.877 L 84.18 107.877 L 84.179 107.878 L 84.187 107.877 C 84.381 107.874 84.561 107.74 84.632 107.562 L 84.661 107.456 L 84.66 107.457 C 86.473 100.618 85.953 96.012 78.186 96.011 L 78.186 96.011 Z  M 39.376 103.369 L 39.26 103.778 L 39.26 103.779 L 38.338 107.047 L 37.416 110.314 C 37.353 110.541 37.108 110.725 36.873 110.725 L 31.993 110.725 C 28.291 110.725 27.389 107.829 28.291 103.559 C 29.192 99.191 30.959 96.476 34.603 96.201 C 39.583 95.825 40.579 99.327 39.376 103.369 L 39.376 103.369 Z  M 42.724 110.474 C 42.724 110.474 45.025 104.886 45.547 101.66 C 46.26 97.341 44.097 91.075 35.743 91.075 C 27.437 91.075 23.829 97.056 22.453 103.559 C 21.077 110.109 22.88 115.852 31.139 115.805 L 37.655 115.781 L 43.744 115.759 C 43.978 115.757 44.218 115.571 44.278 115.345 L 45.339 111.299 C 45.398 111.071 45.255 110.885 45.02 110.883 L 44.003 110.877 L 42.986 110.871 C 42.787 110.87 42.673 110.74 42.697 110.569 L 42.724 110.474 L 42.724 110.474 Z " fill="rgb(19,27,40)"/></g></svg>