<?xml version="1.0" encoding="UTF-8" standalone="no"?><!-- Generator: Gravit.io --><svg xmlns="http://www.w3.org/2000/svg" xmlns:xlink="http://www.w3.org/1999/xlink" style="isolation:isolate" viewBox="0 0 36 36" width="36pt" height="36pt"><defs><clipPath id="_clipPath_eJsxHYZDizw9rwxRYnBq7EMaSrsU0s7D"><rect width="36" height="36"/></clipPath></defs><g clip-path="url(#_clipPath_eJsxHYZDizw9rwxRYnBq7EMaSrsU0s7D)"><path d=" M 36 28 C 36 29.105 35.105 30 34 30 L 2 30 C 0.895 30 0 29.105 0 28 L 0 12 C 0 10.895 0.895 10 2 10 L 34 10 C 35.105 10 36 10.895 36 12 L 36 28 L 36 28 Z " fill="rgb(35,35,35)"/><path d=" M 5.5 19 C 5.5 19.552 5.052 20 4.5 20 L 3.5 20 C 2.948 20 2.5 19.552 2.5 19 L 2.5 18 C 2.5 17.448 2.948 17 3.5 17 L 4.5 17 C 5.052 17 5.5 17.448 5.5 18 L 5.5 19 L 5.5 19 Z  M 9.5 19 C 9.5 19.552 9.052 20 8.5 20 L 7.5 20 C 6.948 20 6.5 19.552 6.5 19 L 6.5 18 C 6.5 17.448 6.948 17 7.5 17 L 8.5 17 C 9.052 17 9.5 17.448 9.5 18 L 9.5 19 L 9.5 19 Z  M 13.5 19 C 13.5 19.552 13.052 20 12.5 20 L 11.5 20 C 10.948 20 10.5 19.552 10.5 19 L 10.5 18 C 10.5 17.448 10.948 17 11.5 17 L 12.5 17 C 13.052 17 13.5 17.448 13.5 18 L 13.5 19 L 13.5 19 Z  M 17.5 19 C 17.5 19.552 17.052 20 16.5 20 L 15.5 20 C 14.948 20 14.5 19.552 14.5 19 L 14.5 18 C 14.5 17.448 14.948 17 15.5 17 L 16.5 17 C 17.052 17 17.5 17.448 17.5 18 L 17.5 19 L 17.5 19 Z  M 21.5 19 C 21.5 19.552 21.052 20 20.5 20 L 19.5 20 C 18.948 20 18.5 19.552 18.5 19 L 18.5 18 C 18.5 17.448 18.948 17 19.5 17 L 20.5 17 C 21.052 17 21.5 17.448 21.5 18 L 21.5 19 L 21.5 19 Z  M 25.5 19 C 25.5 19.552 25.052 20 24.5 20 L 23.5 20 C 22.948 20 22.5 19.552 22.5 19 L 22.5 18 C 22.5 17.448 22.948 17 23.5 17 L 24.5 17 C 25.052 17 25.5 17.448 25.5 18 L 25.5 19 L 25.5 19 Z  M 29.5 19 C 29.5 19.552 29.052 20 28.5 20 L 27.5 20 C 26.948 20 26.5 19.552 26.5 19 L 26.5 18 C 26.5 17.448 26.948 17 27.5 17 L 28.5 17 C 29.052 17 29.5 17.448 29.5 18 L 29.5 19 L 29.5 19 Z  M 33.5 19 C 33.5 19.552 33.052 20 32.5 20 L 31.5 20 C 30.948 20 30.5 19.552 30.5 19 L 30.5 18 C 30.5 17.448 30.948 17 31.5 17 L 32.5 17 C 33.052 17 33.5 17.448 33.5 18 L 33.5 19 L 33.5 19 Z  M 7.5 23 C 7.5 23.552 7.052 24 6.5 24 L 5.5 24 C 4.948 24 4.5 23.552 4.5 23 L 4.5 22 C 4.5 21.448 4.948 21 5.5 21 L 6.5 21 C 7.052 21 7.5 21.448 7.5 22 L 7.5 23 L 7.5 23 Z  M 11.5 23 C 11.5 23.552 11.052 24 10.5 24 L 9.5 24 C 8.948 24 8.5 23.552 8.5 23 L 8.5 22 C 8.5 21.448 8.948 21 9.5 21 L 10.5 21 C 11.052 21 11.5 21.448 11.5 22 L 11.5 23 L 11.5 23 Z  M 15.5 23 C 15.5 23.552 15.052 24 14.5 24 L 13.5 24 C 12.948 24 12.5 23.552 12.5 23 L 12.5 22 C 12.5 21.448 12.948 21 13.5 21 L 14.5 21 C 15.052 21 15.5 21.448 15.5 22 L 15.5 23 L 15.5 23 Z  M 19.5 23 C 19.5 23.552 19.052 24 18.5 24 L 17.5 24 C 16.948 24 16.5 23.552 16.5 23 L 16.5 22 C 16.5 21.448 16.948 21 17.5 21 L 18.5 21 C 19.052 21 19.5 21.448 19.5 22 L 19.5 23 L 19.5 23 Z  M 23.5 23 C 23.5 23.552 23.052 24 22.5 24 L 21.5 24 C 20.948 24 20.5 23.552 20.5 23 L 20.5 22 C 20.5 21.448 20.948 21 21.5 21 L 22.5 21 C 23.052 21 23.5 21.448 23.5 22 L 23.5 23 L 23.5 23 Z  M 27.5 23 C 27.5 23.552 27.052 24 26.5 24 L 25.5 24 C 24.948 24 24.5 23.552 24.5 23 L 24.5 22 C 24.5 21.448 24.948 21 25.5 21 L 26.5 21 C 27.052 21 27.5 21.448 27.5 22 L 27.5 23 L 27.5 23 Z  M 31.5 23 C 31.5 23.552 31.052 24 30.5 24 L 29.5 24 C 28.948 24 28.5 23.552 28.5 23 L 28.5 22 C 28.5 21.448 28.948 21 29.5 21 L 30.5 21 C 31.052 21 31.5 21.448 31.5 22 L 31.5 23 L 31.5 23 Z  M 10 27 C 10 27.552 9.552 28 9 28 L 7 28 C 6.448 28 6 27.552 6 27 L 6 26 C 6 25.448 6.448 25 7 25 L 9 25 C 9.552 25 10 25.448 10 26 L 10 27 L 10 27 Z  M 30 27 C 30 27.552 29.552 28 29 28 L 27 28 C 26.448 28 26 27.552 26 27 L 26 26 C 26 25.448 26.448 25 27 25 L 29 25 C 29.552 25 30 25.448 30 26 L 30 27 L 30 27 Z  M 25 27 C 25 27.552 24.552 28 24 28 L 12 28 C 11.448 28 11 27.552 11 27 L 11 26 C 11 25.448 11.448 25 12 25 L 24 25 C 24.552 25 25 25.448 25 26 L 25 27 L 25 27 Z  M 5.5 13.083 C 5.5 13.635 5.052 14.083 4.5 14.083 L 3.5 14.083 C 2.948 14.083 2.5 13.635 2.5 13.083 C 2.5 12.531 2.948 12.083 3.5 12.083 L 4.5 12.083 C 5.052 12.083 5.5 12.531 5.5 13.083 Z  M 9.5 13.083 C 9.5 13.635 9.052 14.083 8.5 14.083 L 7.5 14.083 C 6.948 14.083 6.5 13.635 6.5 13.083 C 6.5 12.531 6.948 12.083 7.5 12.083 L 8.5 12.083 C 9.052 12.083 9.5 12.531 9.5 13.083 Z  M 13.5 13.083 C 13.5 13.635 13.052 14.083 12.5 14.083 L 11.5 14.083 C 10.948 14.083 10.5 13.635 10.5 13.083 C 10.5 12.531 10.948 12.083 11.5 12.083 L 12.5 12.083 C 13.052 12.083 13.5 12.531 13.5 13.083 Z  M 17.5 13.083 C 17.5 13.635 17.052 14.083 16.5 14.083 L 15.5 14.083 C 14.948 14.083 14.5 13.635 14.5 13.083 C 14.5 12.531 14.948 12.083 15.5 12.083 L 16.5 12.083 C 17.052 12.083 17.5 12.531 17.5 13.083 Z  M 21.5 13.083 C 21.5 13.635 21.052 14.083 20.5 14.083 L 19.5 14.083 C 18.948 14.083 18.5 13.635 18.5 13.083 C 18.5 12.531 18.948 12.083 19.5 12.083 L 20.5 12.083 C 21.052 12.083 21.5 12.531 21.5 13.083 Z  M 25.5 13.083 C 25.5 13.635 25.052 14.083 24.5 14.083 L 23.5 14.083 C 22.948 14.083 22.5 13.635 22.5 13.083 C 22.5 12.531 22.948 12.083 23.5 12.083 L 24.5 12.083 C 25.052 12.083 25.5 12.531 25.5 13.083 Z  M 29.5 13.083 C 29.5 13.635 29.052 14.083 28.5 14.083 L 27.5 14.083 C 26.948 14.083 26.5 13.635 26.5 13.083 C 26.5 12.531 26.948 12.083 27.5 12.083 L 28.5 12.083 C 29.052 12.083 29.5 12.531 29.5 13.083 Z  M 33.5 13.083 C 33.5 13.635 33.052 14.083 32.5 14.083 L 31.5 14.083 C 30.948 14.083 30.5 13.635 30.5 13.083 C 30.5 12.531 30.948 12.083 31.5 12.083 L 32.5 12.083 C 33.052 12.083 33.5 12.531 33.5 13.083 Z " fill="rgb(17,17,17)"/><rect x="0" y="0" width="36" height="36" transform="matrix(1,0,0,1,0,0)" fill="none"/></g></svg>