<?xml version="1.0" encoding="UTF-8" standalone="no"?><!-- Generator: Gravit.io --><svg xmlns="http://www.w3.org/2000/svg" xmlns:xlink="http://www.w3.org/1999/xlink" style="isolation:isolate" viewBox="0 0 36 24" width="36pt" height="24pt"><defs><clipPath id="_clipPath_4wLN7kusMheKACTfim3rGAIMUWzFbtgX"><rect width="36" height="24"/></clipPath></defs><g clip-path="url(#_clipPath_4wLN7kusMheKACTfim3rGAIMUWzFbtgX)"><g><path d="M 2 0 L 34 0 C 35.104 0 36 0.896 36 2 L 36 5.062 L 0 5.062 L 0 2 C 0 0.896 0.896 0 2 0 Z" style="stroke:none;fill:#444444;stroke-miterlimit:10;"/><path d="M 0 4 L 36 4 L 36 22 C 36 23.104 35.104 24 34 24 L 2 24 C 0.896 24 0 23.104 0 22 L 0 4 Z" style="stroke:none;fill:#333333;stroke-miterlimit:10;"/><path d=" M 11.109 19.632 L 9.865 19.632 C 9.46 19.632 9.129 19.3 9.129 18.896 L 9.129 18.603 C 9.129 18.577 9.116 18.478 9.013 18.439 C 9 18.435 8.991 18.431 8.982 18.426 C 8.806 18.366 8.629 18.293 8.466 18.207 C 8.457 18.203 8.444 18.198 8.436 18.194 C 8.405 18.194 8.315 18.241 8.263 18.28 L 8.083 18.461 C 7.794 18.749 7.329 18.749 7.041 18.461 L 6.154 17.578 C 5.865 17.29 5.865 16.825 6.154 16.536 L 6.317 16.373 C 6.442 16.248 6.369 16.08 6.369 16.076 C 6.36 16.059 6.352 16.041 6.348 16.02 C 6.296 15.904 6.244 15.787 6.205 15.671 C 6.201 15.658 6.193 15.65 6.188 15.637 C 6.128 15.49 5.93 15.486 5.921 15.486 L 5.719 15.486 C 5.314 15.486 4.983 15.154 4.983 14.75 L 4.983 13.505 C 4.983 13.101 5.314 12.769 5.719 12.769 L 5.921 12.769 C 5.926 12.769 6.128 12.765 6.188 12.619 C 6.193 12.606 6.197 12.593 6.205 12.584 C 6.249 12.468 6.296 12.352 6.348 12.235 C 6.352 12.218 6.36 12.201 6.369 12.184 C 6.378 12.158 6.438 12.007 6.317 11.887 L 6.154 11.723 C 5.865 11.435 5.865 10.97 6.154 10.681 L 7.036 9.799 C 7.325 9.51 7.79 9.51 8.078 9.799 L 8.259 9.979 C 8.319 10.023 8.41 10.07 8.444 10.061 C 8.449 10.057 8.453 10.057 8.457 10.057 C 8.625 9.975 8.802 9.898 8.982 9.837 C 8.991 9.833 9.004 9.829 9.013 9.824 C 9.116 9.786 9.124 9.682 9.129 9.657 L 9.129 9.368 C 9.129 8.963 9.46 8.632 9.865 8.632 L 11.109 8.632 C 11.514 8.632 11.845 8.963 11.845 9.368 L 11.845 9.661 C 11.845 9.687 11.858 9.786 11.962 9.824 C 11.975 9.829 11.983 9.833 11.992 9.837 C 12.173 9.902 12.345 9.975 12.513 10.057 C 12.521 10.061 12.53 10.066 12.543 10.07 C 12.569 10.07 12.655 10.027 12.719 9.984 L 12.9 9.803 C 13.189 9.514 13.654 9.514 13.942 9.803 L 14.825 10.686 C 15.113 10.974 15.113 11.439 14.825 11.727 L 14.661 11.891 C 14.545 12.012 14.601 12.162 14.614 12.192 C 14.618 12.205 14.627 12.223 14.631 12.235 C 14.687 12.352 14.734 12.472 14.777 12.588 C 14.782 12.601 14.79 12.61 14.795 12.623 C 14.855 12.769 15.053 12.774 15.061 12.774 L 15.264 12.774 C 15.668 12.774 16 13.105 16 13.51 L 16 14.754 C 16 15.159 15.668 15.49 15.264 15.49 L 15.061 15.49 C 15.057 15.49 14.855 15.495 14.795 15.641 C 14.791 15.653 14.785 15.665 14.777 15.675 C 14.734 15.792 14.687 15.908 14.635 16.024 C 14.631 16.041 14.622 16.059 14.614 16.08 C 14.605 16.106 14.545 16.257 14.665 16.377 L 14.829 16.541 C 14.967 16.678 15.044 16.864 15.044 17.062 C 15.044 17.26 14.967 17.445 14.829 17.583 L 13.946 18.465 C 13.658 18.754 13.193 18.754 12.904 18.465 L 12.724 18.284 C 12.663 18.241 12.573 18.198 12.539 18.203 C 12.534 18.207 12.526 18.207 12.521 18.211 C 12.353 18.293 12.177 18.366 12 18.431 C 11.992 18.435 11.979 18.439 11.97 18.444 C 11.858 18.487 11.854 18.607 11.854 18.607 L 11.854 18.9 C 11.845 19.3 11.514 19.632 11.109 19.632 L 11.109 19.632 Z  M 10.485 11.93 C 9.271 11.93 8.285 12.916 8.285 14.13 C 8.285 15.344 9.271 16.33 10.485 16.33 C 11.699 16.33 12.685 15.344 12.685 14.13 C 12.685 12.916 11.699 11.93 10.485 11.93 Z " fill-rule="evenodd" fill="rgb(68,68,68)"/><g><path d=" M 20.543 9 L 32.957 9 C 33.257 9 33.5 9.243 33.5 9.543 L 33.5 10.507 C 33.5 10.807 33.257 11.05 32.957 11.05 L 20.543 11.05 C 20.243 11.05 20 10.807 20 10.507 L 20 9.543 C 20 9.243 20.243 9 20.543 9 Z " fill="rgb(68,68,68)"/><path d=" M 20.543 17.21 L 32.957 17.21 C 33.257 17.21 33.5 17.453 33.5 17.753 L 33.5 18.717 C 33.5 19.017 33.257 19.26 32.957 19.26 L 20.543 19.26 C 20.243 19.26 20 19.017 20 18.717 L 20 17.753 C 20 17.453 20.243 17.21 20.543 17.21 Z " fill="rgb(68,68,68)"/><path d=" M 20.543 13.11 L 32.957 13.11 C 33.257 13.11 33.5 13.353 33.5 13.653 L 33.5 14.617 C 33.5 14.917 33.257 15.16 32.957 15.16 L 20.543 15.16 C 20.243 15.16 20 14.917 20 14.617 L 20 13.653 C 20 13.353 20.243 13.11 20.543 13.11 Z " fill="rgb(68,68,68)"/></g><g><path d=" M 27 0 L 28.5 0 L 28.5 2.5 C 28.5 2.776 28.276 3 28 3 L 27.5 3 C 27.224 3 27 2.776 27 2.5 L 27 0 Z " fill="rgb(51,51,51)"/><path d=" M 29.5 0 L 31 0 L 31 2.5 C 31 2.776 30.776 3 30.5 3 L 30 3 C 29.724 3 29.5 2.776 29.5 2.5 L 29.5 0 Z " fill="rgb(51,51,51)"/><path d=" M 32 0 L 33.5 0 L 33.5 2.5 C 33.5 2.776 33.276 3 33 3 L 32.5 3 C 32.224 3 32 2.776 32 2.5 L 32 0 Z " fill="rgb(51,51,51)"/></g></g></g></svg>