<?xml version="1.0" encoding="UTF-8" standalone="no"?>
<svg
   xmlns:dc="http://purl.org/dc/elements/1.1/"
   xmlns:cc="http://creativecommons.org/ns#"
   xmlns:rdf="http://www.w3.org/1999/02/22-rdf-syntax-ns#"
   xmlns:svg="http://www.w3.org/2000/svg"
   xmlns="http://www.w3.org/2000/svg"
   xmlns:sodipodi="http://sodipodi.sourceforge.net/DTD/sodipodi-0.dtd"
   xmlns:inkscape="http://www.inkscape.org/namespaces/inkscape"
   inkscape:version="1.0 (4035a4fb49, 2020-05-01)"
   sodipodi:docname="surfshark_linux_client.svg"
   id="svg63"
   version="1.1"
   height="500pt"
   width="320pt"
   viewBox="0 0 320 500"
   style="isolation:isolate">
  <metadata
     id="metadata67">
    <rdf:RDF>
      <cc:Work
         rdf:about="">
        <dc:format>image/svg+xml</dc:format>
        <dc:type
           rdf:resource="http://purl.org/dc/dcmitype/StillImage" />
        <dc:title></dc:title>
      </cc:Work>
    </rdf:RDF>
  </metadata>
  <sodipodi:namedview
     inkscape:current-layer="layer2"
     inkscape:window-maximized="1"
     inkscape:window-y="30"
     inkscape:window-x="0"
     inkscape:cy="349.31046"
     inkscape:cx="240.96939"
     inkscape:zoom="1.176"
     showguides="false"
     showgrid="true"
     id="namedview65"
     inkscape:window-height="1016"
     inkscape:window-width="1920"
     inkscape:pageshadow="2"
     inkscape:pageopacity="0"
     guidetolerance="10"
     gridtolerance="10"
     objecttolerance="10"
     borderopacity="1"
     bordercolor="#666666"
     pagecolor="#ffffff" />
  <defs
     id="defs5">
    <clipPath
       id="_clipPath_UaK0lkCHM9D7InUTRFlz5AHg8Gyu02an">
      <rect
         id="rect2"
         height="500"
         width="320" />
    </clipPath>
  </defs>
  <g
     inkscape:label="Layer 1"
     id="layer2"
     inkscape:groupmode="layer">
    <rect
       y="-9.3261948"
       x="-8.9360065"
       height="511.56769"
       width="336.1748"
       id="rect74"
       style="isolation:isolate;fill:#bbbbbb;stroke-width:8.67591;fill-opacity:1" />
  </g>
  <g
     id="g61"
     clip-path="url(#_clipPath_UaK0lkCHM9D7InUTRFlz5AHg8Gyu02an)">
    <clipPath
       id="_clipPath_O9nfAsclqqlPr1zTeVBZnY9LY1SB0G03">
      <rect
         id="rect7"
         fill="rgb(255,255,255)"
         transform="matrix(1,0,0,1,0,0)"
         height="320"
         width="320"
         y="90"
         x="0" />
    </clipPath>
    <g
       id="g59"
       clip-path="url(#_clipPath_O9nfAsclqqlPr1zTeVBZnY9LY1SB0G03)">
      <g
         id="g57">
        <clipPath
           id="_clipPath_IndCzbFad3YQ6TTlGZwy61pIPxiBp2Mm">
          <rect
             id="rect10"
             fill="rgb(255,255,255)"
             transform="matrix(1,0,0,1,0,0)"
             height="320"
             width="320"
             y="90"
             x="0" />
        </clipPath>
        <g
           id="g53"
           clip-path="url(#_clipPath_IndCzbFad3YQ6TTlGZwy61pIPxiBp2Mm)">
          <g
             id="g51">
            <g
               id="g49">
              <path
                 id="path13"
                 fill="rgb(236,239,241)"
                 d=" M 122.862 182.88 L 123.716 202.48 L 110.089 228.036 L 88.791 269.769 L 84.533 304.702 L 99.867 354.107 L 134.791 373.698 L 187.609 373.698 L 237.013 336.213 L 259.164 277.44 L 208.053 215.253 L 193.573 180.329 L 122.862 182.88 Z " />
              <path
                 id="path15"
                 fill="rgb(38,50,56)"
                 d=" M 243.831 231.44 C 230.196 211.849 219.129 199.92 213.164 175.218 C 207.2 150.516 214.862 157.324 209.751 136.036 C 207.2 124.96 202.942 117.289 198.684 111.324 C 193.573 105.369 187.609 101.956 184.196 101.102 C 176.533 96.844 158.64 90.036 136.498 101.956 C 113.493 113.884 116.053 139.44 120.311 191.404 C 120.311 194.809 119.458 199.067 117.751 202.48 C 114.347 210.142 108.382 216.96 103.271 222.924 C 97.307 231.44 91.351 239.956 87.084 249.324 C 76.862 268.924 67.493 293.627 70.053 302.996 C 74.311 302.142 127.973 383.92 127.973 385.627 C 131.387 384.773 145.867 384.773 158.64 384.773 C 176.533 383.92 186.756 383.067 201.236 386.48 C 201.236 383.92 200.382 381.369 200.382 378.809 C 200.382 373.698 201.236 369.44 202.089 363.476 C 202.942 359.218 203.796 354.96 204.64 349.849 C 196.124 357.511 180.791 366.036 166.311 368.587 C 153.529 371.147 132.24 366.88 122.018 354.107 C 122.862 354.107 124.569 354.107 125.422 353.253 C 127.973 352.4 130.533 351.547 131.387 349.849 C 133.938 345.591 132.24 341.324 130.533 338.773 C 128.827 336.213 116.053 326.844 110.089 321.733 C 104.124 316.622 100.72 314.071 97.307 310.658 C 97.307 310.658 92.196 305.547 90.498 303.849 C 88.791 302.142 87.938 300.436 87.084 299.591 C 85.387 295.324 84.533 290.213 85.387 283.404 C 86.24 274.036 89.644 266.364 93.902 257.849 C 95.609 254.436 99.867 247.627 99.867 247.627 C 99.867 247.627 85.387 283.404 93.049 294.48 C 93.049 294.48 93.902 283.404 97.307 272.329 C 99.867 264.658 104.124 253.591 109.236 247.627 C 114.347 241.662 127.129 219.511 127.973 205.884 C 127.973 199.92 128.827 193.956 128.827 189.698 C 125.422 186.293 185.049 177.769 188.462 187.147 C 189.307 190.551 201.236 221.218 208.053 237.404 C 211.458 245.067 215.716 251.884 218.276 260.4 C 220.827 269.769 222.533 282.551 222.533 295.324 C 222.533 297.884 222.533 302.142 221.68 306.4 C 223.387 306.4 256.604 270.622 217.422 240.809 C 217.422 240.809 241.271 251.884 242.124 274.036 C 242.978 291.92 235.307 306.4 233.609 308.96 C 234.462 308.96 251.493 316.622 252.347 316.622 C 255.751 316.622 262.569 314.071 262.569 314.071 C 263.422 311.511 265.973 304.702 265.973 302.142 C 271.938 282.551 257.458 251.031 243.831 231.44 Z " />
              <g
                 id="g21">
                <ellipse
                   id="ellipse17"
                   fill="rgb(236,239,241)"
                   ry="17.037037037037038"
                   rx="11.074074074074076"
                   cy="158.18055555555557"
                   cx="135.6435185185185"
                   vector-effect="non-scaling-stroke" />
                <ellipse
                   id="ellipse19"
                   fill="rgb(236,239,241)"
                   ry="19.59259259259258"
                   rx="14.481481481481495"
                   cy="157.32870370370372"
                   cx="173.97685185185188"
                   vector-effect="non-scaling-stroke" />
              </g>
              <g
                 id="g27">
                <path
                   id="path23"
                   fill="rgb(33,33,33)"
                   d=" M 137.2 170.231 C 133.929 170.649 130.702 166.436 130 160.844 C 129.289 155.244 131.369 150.364 134.631 149.956 C 137.893 149.538 141.12 153.751 141.831 159.342 C 142.533 164.942 140.462 169.822 137.2 170.231 Z " />
                <ellipse
                   id="ellipse25"
                   fill="rgb(33,33,33)"
                   ry="11.074074074074076"
                   rx="8.518518518518505"
                   cy="160.73611111111111"
                   cx="173.12500000000003"
                   vector-effect="non-scaling-stroke" />
              </g>
              <g
                 id="g35">
                <path
                   id="path29"
                   fill="rgb(255,193,7)"
                   d=" M 286.418 348.142 C 283.013 346.436 277.049 343.884 271.938 336.213 C 269.387 331.956 270.24 320.036 265.973 314.924 C 263.422 311.511 260.018 313.218 259.164 313.218 C 251.493 314.924 233.609 326.844 221.68 313.218 C 219.973 311.511 217.422 308.96 213.164 308.96 C 208.907 308.96 207.2 310.658 205.493 314.071 C 203.796 317.476 203.796 320.036 203.796 328.551 C 203.796 335.369 203.796 343.031 202.942 348.996 C 201.236 363.476 198.684 371.991 198.684 380.516 C 198.684 389.884 201.236 395.849 204.64 398.4 C 207.2 400.96 211.458 402.658 220.827 402.658 C 230.196 402.658 236.16 399.253 242.124 393.289 C 246.382 389.031 249.796 387.324 261.716 378.809 C 271.084 372.844 285.573 365.182 288.124 362.622 C 289.831 360.924 292.382 360.071 292.382 354.96 C 292.382 350.702 288.978 348.996 286.418 348.142 Z " />
                <path
                   id="path31"
                   fill="rgb(255,193,7)"
                   d=" M 115.2 350.702 C 106.684 337.067 105.831 334.516 99.867 325.991 C 94.756 317.476 83.68 301.289 76.862 301.289 C 71.751 301.289 69.2 303.849 65.796 307.253 C 62.382 310.658 58.978 318.329 53.013 322.587 C 47.902 326.844 33.422 325.991 30.018 331.102 C 26.604 336.213 33.422 343.884 33.422 356.658 C 33.422 361.769 29.164 365.182 28.311 368.587 C 27.458 372.844 26.604 375.404 28.311 378.809 C 31.716 383.92 35.973 385.627 64.942 391.591 C 80.276 394.996 94.756 403.511 104.124 404.364 C 113.493 405.218 129.68 404.364 129.68 381.369 C 130.533 367.733 122.862 364.329 115.2 350.702 Z " />
                <path
                   id="path33"
                   fill="rgb(255,193,7)"
                   d=" M 131.387 196.516 C 126.276 193.102 122.018 189.698 122.018 184.587 C 122.018 179.476 125.422 177.769 130.533 173.511 C 131.387 172.658 140.756 164.142 150.124 164.142 C 159.493 164.142 170.569 170.107 174.827 171.813 C 182.498 173.511 190.16 175.218 189.307 181.182 C 188.462 189.698 187.609 191.404 179.084 195.662 C 173.129 197.369 162.053 206.738 154.382 206.738 C 150.978 206.738 145.867 206.738 142.462 205.884 C 139.902 205.031 135.644 200.773 131.387 196.516 Z " />
              </g>
              <g
                 id="g43">
                <path
                   id="path37"
                   fill="rgb(99,71,3)"
                   d=" M 129.68 189.698 C 131.387 191.404 133.938 193.102 136.498 193.956 C 138.196 194.809 140.756 195.662 140.756 195.662 C 144.16 195.662 146.72 195.662 148.418 195.662 C 152.684 195.662 158.64 193.956 164.604 190.551 C 170.569 187.991 171.422 186.293 175.68 184.587 C 179.938 182.036 184.196 179.476 182.498 178.622 C 180.791 177.769 179.084 178.622 173.129 182.036 C 168.018 185.44 163.751 187.147 158.64 189.698 C 156.089 190.551 152.684 192.258 150.124 192.258 C 147.573 192.258 145.013 192.258 142.462 192.258 C 139.902 192.258 138.196 191.404 135.644 190.551 C 133.938 189.698 133.084 188.844 132.24 188.844 C 130.533 187.991 127.129 184.587 125.422 183.733 C 125.422 183.733 123.716 183.733 124.569 184.587 C 127.129 187.147 127.973 187.991 129.68 189.698 Z " />
                <path
                   id="path39"
                   fill="rgb(99,71,3)"
                   d=" M 155.236 170.96 C 156.089 172.658 157.796 172.658 158.64 173.511 C 159.493 174.364 160.347 174.364 160.347 174.364 C 161.2 173.511 160.347 171.813 159.493 171.813 C 159.493 170.107 155.236 170.107 155.236 170.96 Z " />
                <path
                   id="path41"
                   fill="rgb(99,71,3)"
                   d=" M 141.609 172.658 C 141.609 173.511 143.307 174.364 143.307 173.511 C 144.16 172.658 145.013 171.813 145.867 171.813 C 147.573 170.96 146.72 170.107 144.16 170.107 C 142.462 170.96 142.462 171.813 141.609 172.658 Z " />
              </g>
              <path
                 id="path45"
                 fill="rgb(69,90,100)"
                 d=" M 224.24 323.44 C 224.24 324.293 224.24 325.147 224.24 325.991 C 225.938 329.404 230.196 330.258 233.609 330.258 C 238.72 330.258 243.831 326.844 246.382 323.44 C 246.382 322.587 247.236 321.733 248.089 320.88 C 249.796 318.329 250.64 316.622 251.493 315.769 C 251.493 315.769 250.64 314.924 250.64 314.071 C 249.796 312.364 247.236 310.658 243.831 309.813 C 241.271 308.96 237.013 308.107 235.307 308.107 C 227.644 307.253 223.387 309.813 220.827 312.364 C 220.827 312.364 221.68 312.364 221.68 313.218 C 223.387 314.924 224.24 316.622 224.24 319.182 C 225.084 320.88 224.24 321.733 224.24 323.44 Z " />
              <path
                 id="path47"
                 fill="rgb(23,138,158)"
                 d=" M 160.631 231.102 L 180.96 231.102 C 190.898 231.102 198.96 235.013 198.96 239.831 L 198.96 239.831 C 198.96 288.018 167.796 326.853 129.396 326.498 L 129.396 326.498 C 123.636 326.444 120.8 314.444 123.067 299.716 L 129.52 257.787 C 131.787 243.058 145.724 231.102 160.631 231.102 Z " />
            </g>
          </g>
        </g>
        <path
           id="path55"
           stroke-miterlimit="3"
           stroke-linecap="square"
           stroke-linejoin="miter"
           stroke="rgb(255,255,255)"
           stroke-width="6"
           vector-effect="non-scaling-stroke"
           fill="none"
           d=" M 178.875 250.312 Q 153.562 261.75 159.375 277.875 Q 165.187 294 139.125 305.437" />
      </g>
    </g>
  </g>
</svg>
